<svg height="64" viewBox="0 0 64 64" width="64" xmlns="http://www.w3.org/2000/svg"><circle cx="32" cy="32" fill="#dedede" r="32"/><path d="m389.911 276.929-10.173 7.042a1.725 1.725 0 0 0 -.745 1.421v13.624a1.728 1.728 0 0 0 1.728 1.728h20.347a1.728 1.728 0 0 0 1.728-1.728v-13.625a1.729 1.729 0 0 0 -.745-1.421l-10.173-7.042a1.727 1.727 0 0 0 -1.967.001z" fill="#fff" transform="translate(-358.638 -257.95)"/><path d="m.833 0h6.037a.833.833 0 0 1 .83.833v8.294h-7.7v-8.294a.833.833 0 0 1 .833-.833z" fill="#f0f0f0" transform="translate(28.405 33.667)"/></svg>