<svg height="64" viewBox="0 0 64 64" width="64" xmlns="http://www.w3.org/2000/svg"><circle cx="32" cy="32" fill="#dedede" r="32"/><path d="m0 0h27.179v10.147a.8.8 0 0 1 -.8.8h-25.579a.8.8 0 0 1 -.8-.8z" fill="#f0f0f0" transform="translate(18.202 31.222)"/><path d="m1.152 0h24.876a1.152 1.152 0 0 1 1.152 1.152v6.377h-27.18v-6.377a1.152 1.152 0 0 1 1.152-1.152z" fill="#fff" transform="translate(18.202 23.694)"/><path d="m540.53 1071.526h-1.551v-4.39c0-.616-.33-1.025-.551-1.025h-11.146c-.225 0-.551.4-.551 1.025v4.39h-1.551v-4.39a2.35 2.35 0 0 1 2.1-2.577h11.146a2.35 2.35 0 0 1 2.1 2.577z" fill="#fff" transform="translate(-501.063 -1046.107)"/><g fill="#dedede"><path d="m526.291 1075.676a.774.774 0 0 1 -.776-.776v-2.706a.776.776 0 0 1 1.551 0v2.706a.775.775 0 0 1 -.775.776z" transform="translate(-500.879 -1042.325)"/><path d="m534.851 1075.676a.775.775 0 0 1 -.776-.776v-2.706a.776.776 0 0 1 1.551 0v2.706a.775.775 0 0 1 -.775.776z" transform="translate(-496.16 -1042.325)"/></g></svg>