<svg height="64" viewBox="0 0 64 64" width="64" xmlns="http://www.w3.org/2000/svg"><circle cx="32" cy="32" fill="#dedede" r="32"/><path d="m535.449 1162.815a.819.819 0 0 1 -.526-.189c-6.66-5.515-5.018-14.788-4.946-15.181a.825.825 0 0 1 1.622.3c-.016.086-1.528 8.722 4.376 13.609a.825.825 0 0 1 -.526 1.46z" fill="#f0f0f0" transform="translate(-498.052 -1116.268)"/><g fill="#fff"><path d="m540.027 1142.857a4 4 0 0 0 -7.276-2.689 4 4 0 0 0 -7.276 2.689 4.719 4.719 0 0 0 .032.522s.221 4.566 7.246 8.722c7.025-4.156 7.246-8.722 7.246-8.722a4.7 4.7 0 0 0 .028-.522z" transform="translate(-500.039 -1120.152)"/><path d="m523.53 1146.385c-2.265 1.08-3.392 3.442-2.518 5.277a3.024 3.024 0 0 1 2.377 4.98c.875 1.834 3.42 2.445 5.684 1.366.164-.079.319-.166.472-.257s4.144-2.194 5.315-9.639c-6.524-3.776-10.837-1.936-10.837-1.936-.164.064-.329.13-.493.209z" transform="translate(-502.255 -1116.754)"/><path d="m541.066 1146.964c2.059 1.169 2.985 3.43 2.066 5.048a2.736 2.736 0 0 0 -2.494 4.393c-.919 1.618-3.334 1.983-5.394.812a5.062 5.062 0 0 1 -.426-.271s-3.757-2.34-4.446-9.277c6.31-2.964 10.244-.936 10.244-.936.15.073.301.148.45.231z" transform="translate(-497.762 -1116.601)"/></g></svg>