<svg height="64" viewBox="0 0 64 64" width="64" xmlns="http://www.w3.org/2000/svg">
<circle cx="32" cy="32" fill="#fdcc61" r="32"/>
<path d="m528.548 283.044c0 8.313-3.669 15.053-15.051 15.053-10.165 0-15.051-6.74-15.051-15.053z" fill="#ffe4ae" transform="translate(-481.496 -254.267)"/>
<path d="m527.4 283.158c-1.259-1.316-3.529-.831-3.763-.776-.006-.037-.021-.079-.029-.119.058-.587.174-3.077-1.875-4.27-2.086-1.213-4.369.02-4.831.3a4.487 4.487 0 0 0 -1.608-1.3c-.043-.021-.081-.034-.122-.053a3.6 3.6 0 0 0 -1.469-.41h-.417a3.588 3.588 0 0 0 -1.467.41c-.041.02-.081.032-.122.053a4.472 4.472 0 0 0 -1.608 1.3c-.462-.275-2.745-1.508-4.831-.3-2.049 1.194-1.933 3.683-1.875 4.27-.009.04-.023.083-.029.119-.234-.055-2.5-.538-3.763.776a5.016 5.016 0 0 0 -1.137 3.543l15.042-.057 15.042.057a5.024 5.024 0 0 0 -1.138-3.543z" fill="#fdfdfd" transform="translate(-481.497 -257.711)"/>
<path d="m0 0h11.442v2.445a1.224 1.224 0 0 1 -1.224 1.224h-8.994a1.224 1.224 0 0 1 -1.224-1.224z" fill="#ffe4ae" transform="translate(26.279 42.587)"/></svg>