<svg height="54" viewBox="0 0 207 54" width="207" xmlns="http://www.w3.org/2000/svg" xmlns:xlink="http://www.w3.org/1999/xlink"><filter id="a" filterUnits="userSpaceOnUse" height="54" width="54" x="0" y="0"><feOffset dy="3"/><feGaussianBlur result="blur" stdDeviation="3"/><feFlood flood-color="#0d0c0f" flood-opacity=".059"/><feComposite in2="blur" operator="in"/><feComposite in="SourceGraphic"/></filter><filter id="b" filterUnits="userSpaceOnUse" height="50" width="51" x="156" y="2"><feOffset dy="3"/><feGaussianBlur result="blur-2" stdDeviation="3"/><feFlood flood-color="#0d0c0f" flood-opacity=".059"/><feComposite in2="blur-2" operator="in"/><feComposite in="SourceGraphic"/></filter><path d="m-701.218-14316.5h131.184" fill="none" stroke="#846eea" stroke-dasharray="2 6" stroke-linecap="round" stroke-width="2" transform="translate(743.718 14342.263)"/><circle cx="104.999" cy="24" fill="#8a69f2" r="24"/><path d="m119.861 553.338 5.711-.929a1 1 0 0 0 .741-.546l2.506-5.135a1.008 1.008 0 0 1 1.792-.027l2.663 5.058a1 1 0 0 0 .756.524l5.738.759a.981.981 0 0 1 .579 1.668l-4.067 4.056a.974.974 0 0 0 -.272.868l1.04 5.6a1 1 0 0 1 -1.434 1.058l-5.176-2.551a1.018 1.018 0 0 0 -.925.013l-5.1 2.706a1 1 0 0 1 -1.466-1.016l.868-5.631a.982.982 0 0 0 -.3-.862l-4.19-3.931a.981.981 0 0 1 .536-1.682z" fill="#fdfdfd" transform="translate(-24.42 -532.999)"/><g filter="url(#a)" transform="translate(.005 -.004)"><circle cx="18" cy="18" fill="#fdfdfd" r="18" transform="translate(9 6)"/></g><path d="m188.1 533.474a1.1 1.1 0 0 1 -1.208-.939v-13.465a1.1 1.1 0 0 1 1.208-.939 1.1 1.1 0 0 1 1.208.939v13.466a1.1 1.1 0 0 1 -1.208.938z" fill="#8a69f2" transform="translate(-163.309 -501.131)"/><path d="m188.012 528.02 10.145-3.826a.6.6 0 0 0 .013-1.169l-10.145-4.012c-.524-.208-1.134.1-1.134.581v7.839c.001.467.598.784 1.121.587z" fill="#8a69f2" transform="translate(-162.971 -500.95)"/><g filter="url(#b)" transform="translate(-.002 .001)"><ellipse cx="16.5" cy="16" fill="#fdfdfd" rx="16.5" ry="16" transform="translate(165 8)"/></g><path d="m259.084 522.69c0-3.495-3.716-6.166-7.6-4.642a4.778 4.778 0 0 0 -3 3.539c-.737 4.2 2.989 8.074 4.57 9.505a1.019 1.019 0 0 0 1.359.005c1.439-1.297 4.671-4.643 4.671-8.407z" fill="#8a69f2" transform="translate(-71.998 -499.785)"/><circle cx="181.739" cy="22.713" fill="#fdfdfd" r="1.985"/></svg>