<svg height="35" viewBox="0 0 34 35" width="34" xmlns="http://www.w3.org/2000/svg"><g fill="#f9f9f9"><path d="m1.368 0h5.4a.411.411 0 0 1 .411.411v33.178a.411.411 0 0 1 -.413.411h-5.4a1.368 1.368 0 0 1 -1.366-1.368v-31.264a1.368 1.368 0 0 1 1.368-1.368z" transform="matrix(0 1 -1 0 34 5.012)"/><path d="m.463 0h17.575a1.543 1.543 0 0 1 1.542 1.543v30.914a1.543 1.543 0 0 1 -1.542 1.543h-17.575a.463.463 0 0 1 -.463-.463v-33.074a.463.463 0 0 1 .463-.463z" transform="matrix(0 1 -1 0 34 15.42)"/><rect height="3.411" rx="1.706" transform="matrix(0 1 -1 0 9.369 .166)" width="7.946"/><rect height="3.411" rx="1.706" transform="matrix(0 1 -1 0 28.397 0)" width="7.946"/></g></svg>