<svg height="32" viewBox="0 0 32 32" width="32" xmlns="http://www.w3.org/2000/svg"><path d="m0 0h31.989v32h-31.989z" fill="none" opacity=".5"/><g fill="#9e9e9e"><circle cx="9.921" cy="11.429" r="4.25"/><circle cx="22.356" cy="11.401" r="4.25"/><path d="m259.7 32.039a10.2 10.2 0 0 0 -6.364 2.019 10.189 10.189 0 0 0 -6.292-1.991c-5.636 0-9.239 3.57-9.669 8.146a.847.847 0 0 0 .837.932h17.664a.812.812 0 0 0 .128-.028h12.527a.846.846 0 0 0 .837-.934c-.444-4.575-4.119-8.144-9.668-8.144z" transform="translate(-237.368 -14.929)"/></g></svg>