<svg height="32" viewBox="0 0 32 32" width="32" xmlns="http://www.w3.org/2000/svg"><path d="m0 0h32v32h-32z" fill="none" opacity=".5"/><g fill="#8a69f2" transform="translate(-173.618 -14.929)"><path d="m198.118 23.807h-2.152v-1.413a.95.95 0 0 0 -1.9 0v1.413h-8.7v-1.32a.95.95 0 1 0 -1.9 0v1.32h-2.35a1 1 0 0 0 -1 1v2.7a.3.3 0 0 0 .3.3h18.4a.3.3 0 0 0 .3-.3v-2.7a1 1 0 0 0 -.998-1z"/><path d="m198.818 29.7h-18.4a.3.3 0 0 0 -.3.3v9.445a1 1 0 0 0 1 1h17a1 1 0 0 0 1-1v-9.445a.3.3 0 0 0 -.3-.3z"/></g></svg>