<svg height="32" viewBox="0 0 32.011 32" width="32.011" xmlns="http://www.w3.org/2000/svg"><path d="m0 0h32v32h-32z" fill="none" opacity=".5"/><g fill="#8a69f2" transform="translate(-237.368 -14.929)"><circle cx="247.292" cy="26.358" r="4.25"/><circle cx="259.732" cy="26.33" r="4.25"/><path d="m259.7 32.039a10.2 10.2 0 0 0 -6.366 2.019 10.194 10.194 0 0 0 -6.294-1.991c-5.638 0-9.242 3.57-9.672 8.146a.847.847 0 0 0 .837.932h17.67a.813.813 0 0 0 .128-.028h12.531a.846.846 0 0 0 .837-.934c-.436-4.575-4.112-8.144-9.671-8.144z"/></g></svg>