<svg height="82" viewBox="0 0 82 82" width="82" xmlns="http://www.w3.org/2000/svg" xmlns:xlink="http://www.w3.org/1999/xlink"><filter id="a" filterUnits="userSpaceOnUse" height="82" width="82" x="0" y="0"><feOffset dy="3"/><feGaussianBlur result="blur" stdDeviation="3"/><feFlood flood-opacity=".161"/><feComposite in2="blur" operator="in"/><feComposite in="SourceGraphic"/></filter><g filter="url(#a)"><circle cx="32" cy="32" fill="#8a69f2" r="32" transform="translate(9 6)"/></g><g fill="#f9f9f9"><path d="m1.368 0h3.691a.411.411 0 0 1 .411.411v25.178a.411.411 0 0 1 -.411.411h-3.691a1.368 1.368 0 0 1 -1.368-1.368v-23.264a1.368 1.368 0 0 1 1.368-1.368z" transform="matrix(0 1 -1 0 53.999 28.233)"/><path d="m.463 0h16.682a1.543 1.543 0 0 1 1.543 1.543v22.914a1.543 1.543 0 0 1 -1.543 1.543h-16.682a.463.463 0 0 1 -.463-.463v-25.074a.463.463 0 0 1 .463-.463z" transform="matrix(0 1 -1 0 53.999 32.313)"/><rect height="2.6" rx="1.3" transform="matrix(0 1 -1 0 35.184 24.54)" width="6.056"/><rect height="2.6" rx="1.3" transform="matrix(0 1 -1 0 49.687 24.413)" width="6.056"/></g><circle cx="41" cy="39.386" fill="#8a69f2" r="7.143"/><path d="m0 0h5" fill="none" stroke="#f9f9f9" stroke-linecap="round" stroke-width="2" transform="translate(38.499 39.386)"/><path d="m0 5v-5" fill="none" stroke="#f9f9f9" stroke-linecap="round" stroke-width="2" transform="translate(40.999 36.886)"/></svg>