<svg height="32" viewBox="0 0 32 32" width="32" xmlns="http://www.w3.org/2000/svg"><path d="m0 0h32v32h-32z" fill="none" opacity=".39"/><g fill="#222" transform="translate(-209.811 -2529.947)"><path d="m235.207 2555.577h-18.79a2.607 2.607 0 0 1 -2.605-2.6v-11.131a2.607 2.607 0 0 1 2.6-2.6h3.188l.568-1.39a2.6 2.6 0 0 1 2.429-1.531h6.335a2.6 2.6 0 0 1 2.429 1.531l.569 1.39h3.275a2.608 2.608 0 0 1 2.6 2.6v11.131a2.608 2.608 0 0 1 -2.598 2.6zm-18.791-14.34a.606.606 0 0 0 -.6.6v11.131a.6.6 0 0 0 .605.6h18.79a.606.606 0 0 0 .6-.6v-11.131a.606.606 0 0 0 -.6-.6h-3.7a1.357 1.357 0 0 1 -1.261-.848l-.73-1.786a.625.625 0 0 0 -.578-.287h-6.342a.625.625 0 0 0 -.578.287l-.729 1.787a1.358 1.358 0 0 1 -1.262.847z"/><path d="m225.812 2551.533a4.7 4.7 0 1 1 4.7-4.7 4.7 4.7 0 0 1 -4.7 4.7zm0-7.4a2.7 2.7 0 1 0 2.7 2.7 2.7 2.7 0 0 0 -2.7-2.697z"/></g></svg>