<svg height="128" viewBox="0 0 128 128" width="128" xmlns="http://www.w3.org/2000/svg"><g fill="#f7f7f9"><path d="m154.453 2046.2a9.141 9.141 0 0 1 -9.141-9.141v-40.549a18.17 18.17 0 0 1 10.138-16.524 17.173 17.173 0 0 1 18.213 1.95l8.447 6.6 12.237-13.566a17.207 17.207 0 0 1 18.92-4.693 18.045 18.045 0 0 1 11.585 16.856l.3 29.81a9.142 9.142 0 0 1 -9.05 9.229h-.091a9.144 9.144 0 0 1 -9.141-9.053l-.28-28.42-16.6 18.407a9.144 9.144 0 0 1 -12.414 1.082l-13.944-10.894-.027 39.762a9.141 9.141 0 0 1 -9.152 9.144z" transform="translate(-122.323 -1949.399)"/><circle cx="93.684" cy="98.355" r="10.698"/></g></svg>