<svg height="20" viewBox="0 0 20 20" width="20" xmlns="http://www.w3.org/2000/svg"><path d="m0 0h20v20h-20z" fill="none" opacity=".5"/><g fill="#fdfdfd" transform="translate(-179.618 -851.464)"><path d="m189.92 860.7a3.12 3.12 0 1 1 3.121-3.12 3.123 3.123 0 0 1 -3.121 3.12zm0-5.24a2.12 2.12 0 1 0 2.121 2.12 2.122 2.122 0 0 0 -2.121-2.116z"/><path d="m195.565 868.464h-11.9a.83.83 0 0 1 -.6-.258.783.783 0 0 1 -.22-.586c.181-3.427 2.964-5.819 6.769-5.819s6.583 2.391 6.768 5.816a.789.789 0 0 1 -.219.589.832.832 0 0 1 -.598.258zm-11.7-1h11.509c-.255-2.756-2.591-4.663-5.754-4.663-3.22-.001-5.507 1.865-5.757 4.663z"/></g></svg>