<svg height="64" viewBox="0 0 64 64" width="64" xmlns="http://www.w3.org/2000/svg"><circle cx="32" cy="32" fill="#8da8fa" r="32"/><rect fill="#fff" height="22.677" rx="1.145" width="18.344" x="21.765" y="20.186"/><g fill="#8da8fa"><path d="m192.981 327.834h-6.356a.689.689 0 1 1 0-1.379h6.356a.689.689 0 1 1 0 1.379z" transform="translate(-158.812 -295.72)"/><path d="m192.981 324.46h-6.356a.689.689 0 1 1 0-1.379h6.356a.689.689 0 1 1 0 1.379z" transform="translate(-158.812 -297.53)"/><path d="m192.981 331.4h-6.356a.689.689 0 1 1 0-1.379h6.356a.689.689 0 1 1 0 1.379z" transform="translate(-158.812 -293.808)"/></g><circle cx="41.544" cy="37.601" fill="#c8d7fc" r="6.819"/><path d="m196.127 332.91a.687.687 0 0 1 -.4-.125l-1.986-1.391a.69.69 0 1 1 .791-1.129l1.522 1.067 2.606-2.494a.689.689 0 1 1 .954 1l-3.015 2.886a.689.689 0 0 1 -.472.186z" fill="#8da8fa" transform="translate(-154.583 -294.09)"/></svg>