<svg height="28" viewBox="0 0 28 28" width="28" xmlns="http://www.w3.org/2000/svg"><path d="m0 0h28v28h-28z" fill="none" opacity=".39"/><g fill="#8a69f2"><path d="m223.812 2427.954a10 10 0 1 1 10-10 10.011 10.011 0 0 1 -10 10zm0-18a8 8 0 1 0 8 8 8.009 8.009 0 0 0 -8-8z" transform="translate(-209.811 -2403.954)"/><path d="m226.227 2421.369a1 1 0 0 1 -.707-.293l-4.832-4.831a1 1 0 1 1 1.415-1.414l4.831 4.831a1 1 0 0 1 -.707 1.707z" transform="matrix(.70710678 -.70710678 .70710678 .70710678 -1854.008946 -1537.49298)"/></g></svg>