<svg height="28" viewBox="0 0 28 28" width="28" xmlns="http://www.w3.org/2000/svg"><path d="m0 0h28v28h-28z" fill="none" opacity=".39"/><g fill="#8a69f2" transform="translate(-209.866 -2202.796)"><path d="m232.866 2226.653h-18a1 1 0 0 1 0-2h18a1 1 0 1 1 0 2z"/><path d="m219.354 2222.594a1.554 1.554 0 0 1 -1.513-1.891l.93-4.182a1 1 0 0 1 .269-.49l8.373-8.374a2.459 2.459 0 0 1 3.473 0l1.854 1.854a2.459 2.459 0 0 1 0 3.472l-8.374 8.374a1 1 0 0 1 -.491.27l-4.181.93a1.627 1.627 0 0 1 -.34.037zm1.3-5.355-.715 3.212 3.212-.714 8.169-8.168a.457.457 0 0 0 0-.645l-.92-.924-.926-.927a.458.458 0 0 0 -.645 0z"/></g></svg>