<svg height="20" viewBox="0 0 20 20" width="20" xmlns="http://www.w3.org/2000/svg"><path d="m0 0h20v20h-20z" fill="none" opacity=".5"/><g fill="#fdfdfd" transform="translate(-243.368 -828.528)"><path d="m258.543 846.35h-9.943a2.73 2.73 0 0 1 -2.727-2.727v-8.895a2.731 2.731 0 0 1 2.727-2.728h9.947a2.731 2.731 0 0 1 2.727 2.728.5.5 0 0 1 -1 0 1.73 1.73 0 0 0 -1.731-1.728h-9.943a1.73 1.73 0 0 0 -1.727 1.728v8.895a1.729 1.729 0 0 0 1.727 1.727h9.947a1.729 1.729 0 0 0 1.727-1.727.5.5 0 0 1 1 0 2.73 2.73 0 0 1 -2.731 2.727z"/><path d="m249.309 834.295a.5.5 0 0 1 -.5-.5v-2.589a.5.5 0 0 1 1 0v2.589a.5.5 0 0 1 -.5.5z"/><path d="m253.367 834.295a.5.5 0 0 1 -.5-.5v-2.589a.5.5 0 0 1 1 0v2.589a.5.5 0 0 1 -.5.5z"/><path d="m257.425 834.295a.5.5 0 0 1 -.5-.5v-2.589a.5.5 0 0 1 1 0v2.589a.5.5 0 0 1 -.5.5z"/><path d="m260.748 841.354a.5.5 0 0 1 -.347-.861l.729-.7h-4.779a.5.5 0 1 1 0-1h6.018a.5.5 0 0 1 .347.86l-1.621 1.563a.5.5 0 0 1 -.347.138z"/><path d="m262.369 839.791a.49.49 0 0 1 -.331-.126l-1.621-1.434a.5.5 0 0 1 .662-.748l1.621 1.434a.5.5 0 0 1 -.331.874z"/></g></svg>