<svg height="28" viewBox="0 0 28 28" width="28" xmlns="http://www.w3.org/2000/svg"><path d="m0 0h28v28h-28z" fill="none" opacity=".5"/><path d="m346.471 1060.788a1 1 0 0 1 -1-1v-3.131a3.68 3.68 0 0 1 -3.336-3.659v-9.2a3.678 3.678 0 0 1 3.675-3.675h12.65a3.679 3.679 0 0 1 3.675 3.675v9.2a3.68 3.68 0 0 1 -3.675 3.675h-6.443l-4.925 3.9a1 1 0 0 1 -.621.215zm-.661-18.663a1.676 1.676 0 0 0 -1.675 1.675v9.2a1.676 1.676 0 0 0 1.675 1.675h.661a1 1 0 0 1 1 1v2.048l3.577-2.832a1 1 0 0 1 .621-.216h6.791a1.676 1.676 0 0 0 1.675-1.675v-9.2a1.676 1.676 0 0 0 -1.675-1.675z" fill="#222" transform="translate(-338.246 -1036.181)"/></svg>