<svg height="64" viewBox="0 0 64 64" width="64" xmlns="http://www.w3.org/2000/svg"><circle cx="32" cy="32" fill="#dedede" r="32"/><path d="m67.119 336.508a.763.763 0 0 1 -.66.38.724.724 0 0 1 -.081 0 .763.763 0 0 1 -.646-.522l-1.959-5.952-1.195 2.186a.766.766 0 0 1 -.672.4h-8.13c1.85 3.019 5.369 6.929 12.094 10.662 7.361-4.087 10.875-8.378 12.569-11.489h-8.762z" fill="#fff" transform="translate(-33.771 -297.832)"/><path d="m80.731 331.783a8.217 8.217 0 0 0 .061-.956 8.112 8.112 0 0 0 -8.112-8.112 8.509 8.509 0 0 0 -6.08 3.185 8.506 8.506 0 0 0 -6.082-3.186 8.112 8.112 0 0 0 -8.112 8.112 8.212 8.212 0 0 0 .061.956h-.006a11.181 11.181 0 0 0 1.2 3.78h8.518l1.821-3.35a.766.766 0 0 1 1.4.127l1.982 6.02 1.933-3.249a.764.764 0 0 1 .657-.372h9.853a.694.694 0 0 1 .081.017 10.01 10.01 0 0 0 .829-2.97z" fill="#fff" transform="translate(-34.5 -301.923)"/><path d="m69.538 331.58a.764.764 0 0 0 -.657.372l-1.933 3.248-1.982-6.02a.766.766 0 0 0 -1.4-.127l-1.823 3.353h-8.518c.233.478.509.988.842 1.532h8.133a.766.766 0 0 0 .672-.4l1.195-2.2 1.959 5.952a.764.764 0 0 0 .646.522.739.739 0 0 0 .081 0 .763.763 0 0 0 .66-.38l2.558-4.33h8.761c.294-.541.547-1.054.741-1.515a.7.7 0 0 0 -.081-.017z" fill="#f0f0f0" transform="translate(-34.063 -298.765)"/></svg>