<svg height="64" viewBox="0 0 64 64" width="64" xmlns="http://www.w3.org/2000/svg"><circle cx="32" cy="32" fill="#8da8fa" r="32"/><path d="m450.369 302.016-2.574-1.3a11.6 11.6 0 0 0 -8.507-.737l-.233.069c-2 .124-2-1.338-2-2.677v-16.2c0-1.254.819-2.054 2.7-2.678a11.592 11.592 0 0 1 8.826.876l1.787.968z" fill="#fff" transform="translate(-418.37 -257.906)"/><path d="m444.988 302.057 2.574-1.3a11.6 11.6 0 0 1 8.509-.737l.232.069c2 .124 2-1.338 2-2.677v-16.2c0-1.252-.817-2.052-2.7-2.677a11.587 11.587 0 0 0 -8.824.876l-1.789.968z" fill="#c8d7fc" transform="translate(-412.989 -257.879)"/></svg>