<svg height="28" viewBox="0 0 28 28" width="28" xmlns="http://www.w3.org/2000/svg"><path d="m0 0h28v28h-28z" fill="none" opacity=".39"/><g fill="#8a69f2" transform="translate(-209.866 -2252.274)"><path d="m218.338 2277.182a1.015 1.015 0 0 1 -.436-.1 1 1 0 0 1 -.564-.9v-3.132a3.68 3.68 0 0 1 -3.336-3.659v-9.2a3.678 3.678 0 0 1 3.675-3.674h12.65a3.678 3.678 0 0 1 3.675 3.674v9.2a3.678 3.678 0 0 1 -3.675 3.674h-6.443l-4.926 3.9a1 1 0 0 1 -.62.217zm-.661-18.664a1.676 1.676 0 0 0 -1.675 1.674v9.2a1.676 1.676 0 0 0 1.675 1.674h.661a1 1 0 0 1 1 1v2.049l3.578-2.833a1 1 0 0 1 .62-.216h6.791a1.677 1.677 0 0 0 1.675-1.674v-9.2a1.677 1.677 0 0 0 -1.675-1.674z"/><path d="m226.987 2263.633h-5.971a1 1 0 1 1 0-2h5.971a1 1 0 0 1 0 2z"/><path d="m226.987 2267.412h-5.971a1 1 0 1 1 0-2h5.971a1 1 0 0 1 0 2z"/></g></svg>