<svg height="20" viewBox="0 0 20 20" width="20" xmlns="http://www.w3.org/2000/svg"><path d="m0 0h20v20h-20z" fill="none" opacity=".5"/><g fill="#fff" transform="translate(-177.907 -1112.479)"><path d="m187.909 1130.476a1.608 1.608 0 0 1 -1.082-.413c-1.828-1.656-5.989-6.025-5.145-10.831a5.717 5.717 0 0 1 3.584-4.241 6.7 6.7 0 0 1 6.32.611 5.976 5.976 0 0 1 2.656 4.921c0 4.32-3.68 8.115-5.262 9.546a1.59 1.59 0 0 1 -1.071.407zm.006-15a6.24 6.24 0 0 0 -2.284.445 4.7 4.7 0 0 0 -2.964 3.483c-.758 4.314 3.126 8.371 4.831 9.916a.609.609 0 0 0 .811.005c1.483-1.342 4.933-4.885 4.933-8.8a4.978 4.978 0 0 0 -2.219-4.094 5.472 5.472 0 0 0 -3.108-.953z"/><path d="m187.907 1123.267a2.744 2.744 0 1 1 2.743-2.744 2.747 2.747 0 0 1 -2.743 2.744zm0-4.488a1.744 1.744 0 1 0 1.743 1.744 1.746 1.746 0 0 0 -1.743-1.744z"/></g></svg>