<svg height="28" viewBox="0 0 28 28" width="28" xmlns="http://www.w3.org/2000/svg"><path d="m0 0h28v28h-28z" fill="none" opacity=".39"/><g fill="#8a69f2" transform="translate(-209.866 -2351.23)"><path d="m230.331 2375.229h-12.931a2.012 2.012 0 0 1 -2.01-2.009v-7.679a2.013 2.013 0 0 1 2.01-2.01h12.931a2.013 2.013 0 0 1 2.01 2.01v7.679a2.012 2.012 0 0 1 -2.01 2.009zm-12.931-9.7-.01 7.689 12.941.009.01-7.688-.01-.01z"/><path d="m219.86 2365.531a1 1 0 0 1 -1-1v-4.3a5.006 5.006 0 1 1 10.011 0 1 1 0 0 1 -2 0 3.006 3.006 0 1 0 -6.011 0v4.3a1 1 0 0 1 -1 1z"/></g></svg>