<svg height="28" viewBox="0 0 28 28" width="28" xmlns="http://www.w3.org/2000/svg"><path d="m0 0h28v28h-28z" fill="none" opacity=".39"/><g fill="#8a69f2" transform="translate(-209.866 -2301.752)"><path d="m231.027 2325.342h-14.327a2.8 2.8 0 0 1 -2.838-2.752v-11.9a2.8 2.8 0 0 1 2.838-2.751h14.323a2.8 2.8 0 0 1 2.839 2.751v11.9a2.8 2.8 0 0 1 -2.835 2.752zm-14.323-15.4a.8.8 0 0 0 -.838.751v11.9a.8.8 0 0 0 .838.752h14.323a.8.8 0 0 0 .839-.752v-11.9a.8.8 0 0 0 -.839-.751z"/><path d="m219.2 2311.723a1 1 0 0 1 -1-1v-3.561a1 1 0 0 1 2 0v3.561a1 1 0 0 1 -1 1z"/><path d="m228.532 2311.723a1 1 0 0 1 -1-1v-3.561a1 1 0 0 1 2 0v3.561a1 1 0 0 1 -1 1z"/><path d="m226.8 2318.275h-5.627a1 1 0 0 1 0-2h5.627a1 1 0 0 1 0 2z"/><path d="m223.991 2321.089a1 1 0 0 1 -1-1v-5.627a1 1 0 0 1 2 0v5.627a1 1 0 0 1 -1 1z"/></g></svg>