<svg height="28" viewBox="0 0 28 28" width="28" xmlns="http://www.w3.org/2000/svg"><circle cx="14" cy="14" fill="#8a69f2" r="14"/><path d="m119.53 550.588 3.464-.573a.608.608 0 0 0 .449-.337l1.52-3.166a.607.607 0 0 1 1.087-.017l1.616 3.118a.608.608 0 0 0 .459.323l3.481.468a.607.607 0 0 1 .352 1.029l-2.467 2.5a.607.607 0 0 0 -.165.535l.631 3.455a.607.607 0 0 1 -.87.652l-3.14-1.575a.609.609 0 0 0 -.561.008l-3.091 1.668a.608.608 0 0 1 -.889-.626l.527-3.472a.611.611 0 0 0 -.182-.531l-2.542-2.424a.608.608 0 0 1 .321-1.035z" fill="#fdfdfd" transform="translate(-111.317 -538.726)"/></svg>