<svg height="28" viewBox="0 0 28 28" width="28" xmlns="http://www.w3.org/2000/svg"><path d="m0 0h28v28h-28z" fill="none" opacity=".5"/><g fill="#222" transform="translate(-137.687 -1082.089)"><path d="m153.859 1107.708h-3.745a1.81 1.81 0 0 1 -1.774-1.456c-.1-.5-.245-1.231-.388-1.919a.731.731 0 0 0 -.976-.536l-1.629.617a1.8 1.8 0 0 1 -2.208-.789l-1.855-3.213a1.818 1.818 0 0 1 .439-2.318l1.322-1.055a.731.731 0 0 0 .043-1.107l-1.461-1.362a1.8 1.8 0 0 1 -.333-2.226l1.876-3.251a1.82 1.82 0 0 1 2.232-.778l1.6.633a.73.73 0 0 0 .983-.521c.155-.695.314-1.429.422-1.934a1.816 1.816 0 0 1 1.768-1.428h3.775a1.813 1.813 0 0 1 1.774 1.456c.1.5.244 1.228.387 1.916a.72.72 0 0 0 .364.493.733.733 0 0 0 .61.044l1.634-.616a1.8 1.8 0 0 1 2.2.787l1.875 3.248a1.817 1.817 0 0 1 -.361 2.253c-.386.343-.944.839-1.471 1.314a.729.729 0 0 0 .026 1.108l1.336 1.095a1.8 1.8 0 0 1 .421 2.3l-1.877 3.25a1.817 1.817 0 0 1 -2.12.818l-1.88-.607a.732.732 0 0 0 -.945.575l-.284 1.693a1.8 1.8 0 0 1 -1.78 1.516zm-3.588-2h3.429l.257-1.534a2.732 2.732 0 0 1 3.532-2.149l1.731.56 1.719-2.977-1.211-.991a2.73 2.73 0 0 1 -.1-4.143c.478-.431.981-.879 1.36-1.216l-1.715-2.971-1.482.558a2.731 2.731 0 0 1 -3.638-2c-.13-.625-.262-1.282-.36-1.778h-3.463c-.107.5-.252 1.164-.393 1.8a2.731 2.731 0 0 1 -3.67 1.945l-1.448-.573-1.718 2.976 1.35 1.258a2.731 2.731 0 0 1 -.16 4.134l-1.193.952 1.692 2.93 1.477-.559a2.731 2.731 0 0 1 3.642 2c.131.623.263 1.281.362 1.778z"/><path d="m152.042 1100.684a4.3 4.3 0 1 1 4.3-4.3 4.3 4.3 0 0 1 -4.3 4.3zm0-6.595a2.3 2.3 0 1 0 2.3 2.3 2.3 2.3 0 0 0 -2.3-2.3z"/></g></svg>