<svg height="28" viewBox="0 0 28 28" width="28" xmlns="http://www.w3.org/2000/svg"><circle cx="14" cy="14" fill="#8a69f2" r="14"/><g fill="#fdfdfd"><path d="m266.975 655.48a.5.5 0 0 1 -.354-.853l2.275-2.274a.5.5 0 0 1 .707.707l-2.275 2.274a.5.5 0 0 1 -.353.146z" transform="translate(-258.15 -635.656)"/><path d="m273.646 655.778.618-3.1a.934.934 0 0 1 .254-.474l1.539-1.539.513.513a.418.418 0 0 0 .558.057l1.073-1.073a.928.928 0 0 0 0-1.312l-1.082-1.082-.942-.942-.942-.941-1.082-1.082a.926.926 0 0 0 -1.311 0l-1.072 1.072a.416.416 0 0 0 .056.558l.474.554-1.5 1.5a.926.926 0 0 1 -.474.253l-3.1.62a.927.927 0 0 0 -.474 1.565l1.769 1.769.893.893.894.894 1.769 1.769a.927.927 0 0 0 1.569-.472z" transform="translate(-258.15 -636.711)"/></g></svg>